<?xml version="1.0" standalone="no"?>
<!DOCTYPE svg PUBLIC "-//W3C//DTD SVG 20010904//EN"
 "http://www.w3.org/TR/2001/REC-SVG-20010904/DTD/svg10.dtd">
<svg version="1.0" xmlns="http://www.w3.org/2000/svg"
 width="315.000000pt" height="223.000000pt" viewBox="0 0 315.000000 223.000000"
 preserveAspectRatio="xMidYMid meet">

<g transform="translate(0.000000,223.000000) scale(0.100000,-0.100000)"
fill="#000000" stroke="none">
<path d="M26 2205 c3 -11 10 -56 15 -100 12 -106 52 -238 100 -328 6 -10 7
-32 4 -47 -4 -16 -2 -37 3 -47 7 -12 6 -25 -4 -44 -7 -15 -22 -76 -33 -136
-10 -61 -27 -125 -36 -142 -26 -52 -55 -180 -54 -240 l2 -56 7 72 c8 70 40
183 61 213 8 11 9 -24 6 -125 -2 -77 -2 -124 1 -105 3 27 6 31 11 16 4 -10 5
50 3 133 -5 178 15 320 55 378 13 19 44 77 69 129 31 65 53 99 70 106 13 6 27
8 30 5 15 -15 15 -100 -1 -171 -15 -65 -15 -87 -6 -137 12 -58 11 -60 -23
-131 -20 -40 -36 -64 -36 -54 0 11 -2 17 -5 15 -2 -3 1 -32 7 -66 9 -49 8 -75
-6 -142 -31 -155 -17 -326 37 -461 23 -55 23 -60 6 -44 -22 20 -89 149 -89
173 0 13 -2 14 -9 2 -11 -17 13 -70 70 -151 46 -65 105 -116 113 -97 3 6 4 3
1 -9 -6 -24 39 -70 105 -108 57 -33 33 -33 -67 -1 -102 32 -193 92 -231 153
-33 50 -72 157 -72 194 0 16 -3 19 -8 10 -8 -11 -38 44 -76 138 -3 8 -4 2 -1
-15 4 -16 28 -77 54 -135 26 -58 58 -129 71 -158 30 -67 97 -130 182 -170 81
-39 191 -66 239 -58 24 4 47 0 65 -9 37 -19 107 -19 170 0 104 32 129 15 148
-99 15 -81 16 -69 -32 -221 -11 -33 -27 -77 -36 -97 -9 -21 -13 -38 -9 -38 11
0 59 122 78 194 17 68 19 71 40 62 14 -5 13 -9 -4 -33 -18 -26 -61 -170 -61
-207 0 -9 8 -16 20 -16 12 0 20 7 20 17 0 9 12 42 28 73 26 55 29 57 62 55 35
-3 35 -3 5 5 -26 7 -23 8 18 7 35 -1 46 -4 43 -14 -12 -30 64 59 78 91 16 39
32 44 75 21 34 -17 47 -47 61 -144 11 -74 24 -111 39 -111 5 0 0 17 -9 38 -10
20 -21 65 -25 100 -6 55 -5 61 9 56 30 -11 136 -144 136 -170 0 -20 5 -24 29
-24 16 0 31 6 35 15 3 8 10 15 16 15 5 0 10 -7 10 -15 0 -12 16 -15 88 -15
l88 0 -18 123 c-10 67 -22 210 -27 317 -4 107 -9 164 -9 125 -2 -64 -3 -68
-18 -53 -9 9 -19 31 -23 49 -6 33 -9 34 -61 39 -60 5 -118 36 -143 74 -9 13
-39 50 -66 81 -28 32 -63 82 -77 112 -23 47 -26 63 -22 122 4 56 13 82 42 136
22 38 51 75 69 86 45 28 114 21 164 -17 21 -16 42 -28 46 -26 5 1 6 -2 3 -7
-3 -5 6 -31 21 -57 15 -27 33 -69 39 -94 12 -43 13 -39 13 71 l1 116 39 7 c21
3 49 15 62 26 24 19 24 19 -16 0 -21 -11 -52 -20 -67 -20 -24 0 -28 4 -28 28
0 35 -12 46 -126 110 -50 28 -159 101 -244 162 -248 179 -303 197 -487 165
-62 -11 -106 -14 -116 -9 -17 10 -122 135 -138 165 -27 51 66 116 249 173 148
46 191 37 465 -100 169 -84 251 -135 266 -162 14 -26 24 -72 22 -102 -7 -93
-3 -114 20 -131 13 -10 31 -25 41 -33 9 -8 18 -12 20 -10 3 2 41 -3 86 -12 57
-12 82 -21 85 -33 4 -15 5 -15 6 0 1 12 15 18 49 23 85 11 140 36 196 87 31
28 61 67 70 90 24 58 28 176 9 213 -25 49 -113 134 -172 168 -54 31 -62 33
-201 39 -163 7 -194 15 -302 81 -145 89 -186 108 -230 108 l-43 0 78 -37 c42
-20 77 -42 77 -50 0 -7 -4 -13 -9 -13 -7 0 -97 -103 -134 -153 -12 -18 -17
-17 -95 18 -105 46 -180 60 -239 46 -43 -11 -63 -8 -63 8 0 8 40 20 110 35 14
3 56 36 94 73 l69 68 -37 3 c-30 3 -41 -2 -61 -26 -30 -35 -80 -61 -132 -67
-87 -10 -153 -25 -177 -40 -24 -16 -24 -16 -20 7 3 15 0 13 -7 -7 -7 -16 -33
-57 -59 -90 -25 -33 -56 -76 -68 -95 -11 -20 -32 -46 -46 -59 l-26 -24 1 34
c0 19 8 65 18 102 15 56 23 71 49 87 33 20 48 56 39 90 -6 24 18 40 62 40 23
0 31 -6 39 -27 6 -16 11 -21 11 -12 2 32 -24 52 -62 47 -20 -2 -37 -3 -37 -1
0 2 15 12 33 23 39 24 12 28 -34 5 -26 -14 -30 -14 -35 0 -11 29 -39 14 -94
-51 -88 -104 -121 -157 -127 -203 -5 -35 -12 -47 -42 -66 -22 -13 -44 -39 -55
-64 -11 -22 -22 -41 -25 -41 -3 0 -19 13 -34 29 -55 59 -108 222 -111 341 -1
64 -1 65 -29 65 -24 0 -27 -3 -21 -20z m479 -77 c-2 -35 -6 -72 -10 -83 -6
-16 -5 -17 4 -5 6 8 11 11 11 5 0 -14 -19 -42 -21 -30 -3 22 -18 -74 -19 -120
0 -27 -7 -61 -15 -75 -8 -14 -14 -29 -14 -35 0 -5 6 1 14 15 14 24 14 24 15 3
1 -58 -58 -103 -87 -66 -17 21 -28 94 -28 179 0 65 3 75 36 125 28 42 108 145
115 148 1 1 0 -27 -1 -61z m55 34 c0 -10 6 -24 13 -31 10 -10 6 -18 -18 -38
l-30 -27 -3 49 c-2 32 1 51 10 56 20 13 28 11 28 -9z m929 -63 c42 -23 78 -43
80 -46 3 -2 -18 -25 -45 -51 -28 -26 -67 -67 -86 -92 l-37 -45 -73 39 c-40 21
-77 42 -82 47 -5 4 2 22 15 41 33 47 130 148 142 148 6 0 44 -19 86 -41z m208
-87 c30 -3 55 -8 58 -12 2 -4 -10 -21 -28 -38 l-32 -30 -73 40 c-68 38 -72 41
-57 58 15 17 18 17 48 2 17 -9 55 -18 84 -20z m-85 -44 c33 -18 62 -37 65 -43
3 -9 -61 -144 -83 -173 -1 -2 -27 15 -58 36 -30 22 -69 45 -86 52 -16 7 -30
17 -30 22 0 16 104 138 119 138 7 0 40 -14 73 -32z m273 -18 c-3 -5 -17 -10
-31 -10 -55 0 -125 -52 -159 -118 -19 -38 -22 -123 -6 -165 15 -39 13 -47 -4
-17 -8 14 -14 21 -15 15 0 -15 39 -75 47 -73 5 1 30 -11 58 -27 40 -24 61 -30
105 -29 64 1 91 13 143 62 20 20 37 33 37 28 0 -17 -65 -86 -95 -100 -64 -31
-163 -16 -217 32 -10 8 -18 11 -18 7 0 -13 -41 28 -55 55 -19 37 -29 73 -18
67 5 -3 9 21 9 57 0 123 79 205 217 225 5 0 5 -3 2 -9z m115 -20 c52 -27 87
-67 71 -83 -9 -9 -14 -9 -21 3 -6 8 -8 21 -5 28 3 7 1 10 -4 7 -5 -3 -26 6
-46 19 -19 14 -49 27 -65 31 -17 4 -30 11 -30 17 0 13 55 1 100 -22z m-40 -22
c68 -35 103 -86 108 -158 8 -114 -62 -199 -172 -208 -219 -18 -288 284 -86
372 50 22 99 19 150 -6z m139 -86 c16 -30 24 -91 16 -129 -8 -36 -8 -37 -15
-13 -5 14 -8 34 -8 45 0 16 2 15 9 -5 6 -18 7 -10 3 25 -6 55 -22 85 -18 33
l3 -33 -8 30 c-12 43 -13 65 -1 65 5 0 14 -8 19 -18z m-1904 -32 c9 -16 12
-30 8 -30 -16 1 -54 40 -48 50 11 17 24 11 40 -20z m404 -3 c11 -19 34 -51 51
-72 17 -21 27 -42 22 -47 -5 -5 -39 -11 -75 -15 -62 -5 -70 -4 -92 17 -38 36
-30 82 23 127 36 31 47 29 71 -10z m-413 -81 c-3 -14 -10 -26 -15 -26 -15 0
-21 31 -10 52 15 27 34 8 25 -26z m195 -56 c-5 -30 -14 -56 -20 -58 -7 -2 -10
-18 -6 -40 4 -30 3 -32 -4 -12 -11 30 -13 145 -4 178 6 23 6 23 24 5 16 -16
17 -26 10 -73z m25 -19 c-14 -18 -20 2 -11 37 l8 27 7 -25 c4 -14 2 -31 -4
-39z m53 -19 c-22 -19 -46 -47 -52 -61 l-11 -26 -4 28 c-2 21 7 41 34 77 36
47 39 49 56 33 17 -15 16 -18 -23 -51z m191 7 c0 -3 -16 -27 -35 -53 -25 -32
-43 -46 -60 -46 -13 0 -31 -3 -40 -6 -13 -5 -10 6 14 47 18 32 40 57 53 60 28
8 68 7 68 -2z m-140 -4 c0 -2 -15 -12 -32 -20 l-33 -16 24 21 c22 19 41 26 41
15z m22 -27 c-10 -18 -36 -61 -56 -95 -48 -81 -71 -84 -61 -10 9 68 13 74 71
107 64 36 69 36 46 -2z m1188 11 c0 -6 -4 -7 -10 -4 -5 3 -10 11 -10 16 0 6 5
7 10 4 6 -3 10 -11 10 -16z m-107 -34 c9 -25 12 -45 7 -45 -9 0 -30 54 -30 76
0 25 8 15 23 -31z m-699 10 c17 -13 13 -17 -56 -48 -41 -19 -91 -40 -112 -47
-45 -14 -71 -58 -62 -104 4 -19 1 -39 -6 -49 -12 -15 -17 -14 -63 15 -54 34
-120 47 -153 29 -21 -11 -62 -105 -62 -144 0 -12 22 -49 50 -82 58 -71 60 -82
25 -202 -53 -181 -54 -281 -6 -377 11 -20 16 -36 12 -36 -17 0 -54 51 -77 106
-20 47 -24 52 -19 24 l6 -35 -22 25 c-89 102 -133 351 -94 535 21 101 55 195
69 195 32 0 34 -23 6 -84 -48 -109 -43 -114 9 -9 35 70 69 120 110 163 57 61
60 62 97 55 93 -17 125 -12 224 37 52 25 97 47 100 47 3 0 14 -6 24 -14z m177
-13 c33 -27 20 -56 -21 -47 -51 11 -202 -41 -255 -87 -45 -40 -65 -47 -65 -24
0 25 51 76 101 101 48 25 185 74 205 75 7 0 22 -8 35 -18z m197 -50 c15 -12
25 -33 29 -59 l5 -40 -43 -7 c-24 -4 -72 -23 -107 -42 l-63 -34 -14 35 c-8 19
-15 47 -15 63 0 72 147 131 208 84z m-893 -100 c-5 -28 -9 -32 -28 -26 -30 9
-30 8 -22 54 4 23 17 52 29 64 l21 21 3 -40 c2 -21 1 -54 -3 -73z m615 80 c0
-5 -18 -16 -41 -26 -32 -14 -45 -28 -60 -63 -23 -54 -24 -81 -3 -133 11 -27
24 -42 40 -46 20 -5 24 -13 24 -41 0 -19 5 -43 10 -53 7 -13 6 -27 -2 -44 -14
-32 -19 -32 -49 0 -13 14 -51 49 -84 77 -57 48 -56 47 21 -34 146 -152 334
-388 334 -419 0 -5 -14 -17 -31 -26 l-31 -16 -52 59 c-28 31 -80 87 -115 123
-35 36 -17 11 41 -55 138 -158 130 -152 168 -125 17 12 33 21 34 19 2 -2 20
-35 40 -72 41 -78 44 -106 16 -132 -36 -33 -67 -11 -169 125 -166 219 -259
300 -434 376 -78 33 -97 47 -172 125 -96 100 -100 112 -61 195 24 52 39 64 82
64 23 0 124 -45 124 -55 0 -3 -17 -3 -38 1 -34 5 -42 2 -80 -35 -49 -48 -52
-69 -14 -102 l27 -24 -23 26 c-29 33 -28 50 4 83 30 29 43 31 91 14 29 -10 35
-10 46 6 13 17 17 15 73 -30 45 -37 55 -42 42 -21 -24 35 -23 54 7 113 35 70
71 101 151 129 76 27 84 29 84 17z m438 -111 c-2 -12 -15 -16 -48 -16 l-45 0
-11 61 -11 61 59 -44 c37 -29 58 -51 56 -62z m-384 32 c4 -21 12 -51 18 -66 9
-23 8 -30 -8 -43 -26 -20 -91 -54 -104 -54 -24 0 -50 41 -50 80 0 38 3 41 63
80 34 22 65 40 68 40 4 0 10 -17 13 -37z m256 -32 c0 -28 -100 -60 -130 -41
-20 12 -4 27 46 45 56 20 84 19 84 -4z m-1023 -33 c-3 -7 -5 -2 -5 12 0 14 2
19 5 13 2 -7 2 -19 0 -25z m1267 -27 c19 -21 19 -21 -42 1 -57 21 -60 24 -45
40 15 17 17 17 42 -1 14 -10 35 -28 45 -40z m-816 41 c9 -7 10 -16 1 -43 -16
-46 -25 -55 -44 -39 -19 16 -19 40 1 68 16 24 22 26 42 14z m-128 -67 c14 -8
19 -14 10 -14 -8 0 -26 6 -40 14 -14 8 -19 14 -10 14 8 0 26 -6 40 -14z m480
-24 c-11 -22 -35 -28 -45 -12 -5 9 45 41 53 35 2 -1 -1 -12 -8 -23z m94 -108
c66 -36 123 -68 125 -70 3 -2 -5 -14 -17 -26 l-23 -22 -92 49 c-152 80 -155
83 -149 111 2 14 11 25 20 25 8 0 69 -30 136 -67z m484 32 c-2 -25 -12 -32
-22 -16 -8 12 3 41 15 41 5 0 8 -11 7 -25z m-617 -240 c20 -43 10 -45 -19 -5
-25 34 -27 40 -9 40 6 -1 19 -16 28 -35z m82 -24 c23 -6 26 -9 11 -10 -24 -1
-74 34 -74 52 0 6 7 2 15 -11 9 -12 30 -26 48 -31z m-622 -37 c-6 -32 -11 -80
-10 -108 l1 -51 12 57 c6 32 18 65 27 74 15 14 17 12 24 -32 4 -32 16 -56 35
-75 27 -27 27 -28 6 -32 -11 -2 22 -5 74 -5 61 0 88 2 75 8 -11 5 -14 9 -7 9
7 1 25 13 39 27 l25 26 37 -30 c20 -16 41 -38 46 -49 6 -12 17 -28 24 -37 8
-9 11 -19 7 -23 -3 -4 22 -21 55 -40 67 -35 105 -66 121 -98 9 -16 8 -18 -3
-7 -7 6 -17 12 -22 12 -4 0 -5 -6 -2 -12 4 -7 -5 2 -20 20 -28 34 -93 75 -135
86 -14 4 -2 -5 25 -19 28 -15 65 -41 83 -58 39 -38 75 -108 70 -139 -3 -19 -6
-18 -29 18 -34 52 -102 116 -150 143 -55 31 -49 21 10 -18 61 -39 122 -107
150 -166 34 -73 23 -86 -12 -15 -27 55 -42 71 -97 108 -92 61 -150 75 -277 70
-124 -6 -136 0 -159 77 -18 63 -28 73 -18 18 9 -50 20 -71 57 -110 l31 -33
-25 0 c-27 0 -64 22 -91 55 -68 80 -62 329 10 408 22 25 25 10 13 -59z m229
-16 c13 -25 13 -31 0 -55 -9 -16 -26 -29 -38 -31 -35 -5 -72 24 -72 55 0 64
79 86 110 31z m460 21 c0 -19 -93 -25 -108 -6 -8 9 3 12 49 12 32 0 59 -3 59
-6z m120 -65 c0 -7 -9 -18 -20 -24 -17 -9 -22 -7 -30 15 -13 34 -13 38 3 54
10 10 15 8 30 -10 9 -11 17 -27 17 -35z m-710 -8 c0 -42 95 -72 135 -42 19 14
45 11 45 -5 0 -16 -59 -39 -103 -39 -63 0 -124 54 -102 90 9 15 25 12 25 -4z
m628 -33 c18 -59 -3 -71 -50 -26 l-28 26 28 18 c37 24 37 24 50 -18z m107 7
c3 -5 -3 -10 -15 -10 -12 0 -18 5 -15 10 3 6 10 10 15 10 5 0 12 -4 15 -10z
m27 -36 c4 -3 -5 -28 -20 -55 -27 -54 -35 -52 -47 13 -6 30 -4 37 12 41 28 7
49 8 55 1z m-98 -109 c23 -92 20 -98 -18 -30 -26 45 -32 64 -25 77 16 31 26
20 43 -47z m108 -12 c17 -15 25 -43 13 -43 -13 0 -65 31 -65 39 0 24 27 27 52
4z m-11 -49 c12 -14 11 -16 -5 -13 -11 2 -21 10 -24 17 -5 17 13 15 29 -4z
m116 -49 c1 -5 -11 -10 -27 -11 -29 -1 -37 6 -23 20 10 10 46 3 50 -9z m-618
-36 l35 -12 -79 -24 c-102 -30 -136 -30 -174 3 -37 31 -39 41 -8 48 38 8 190
-2 226 -15z m804 -8 c15 -25 52 -269 43 -279 -2 -1 -18 19 -35 45 -33 49 -55
114 -65 193 l-6 45 18 -28 c17 -25 20 -26 33 -11 12 14 10 19 -8 34 -12 10
-19 20 -16 24 11 11 18 6 36 -23z m-173 -3 c5 -13 14 -61 20 -108 5 -46 15
-89 20 -94 19 -19 10 -36 -20 -36 -21 0 -35 -8 -46 -26 -21 -30 -32 -21 -58
44 -24 64 -16 191 16 229 17 21 57 16 68 -9z m-338 -26 c-27 -4 -37 2 -27 17
4 8 13 7 28 -1 l22 -13 -23 -3z m18 -32 c0 -5 -11 -10 -25 -10 -14 0 -25 5
-25 10 0 6 11 10 25 10 14 0 25 -4 25 -10z m400 -19 c0 -6 -4 -13 -10 -16 -5
-3 -10 1 -10 9 0 9 5 16 10 16 6 0 10 -4 10 -9z m-395 -21 c-3 -5 -17 -10 -31
-10 -13 0 -24 5 -24 10 0 6 14 10 31 10 17 0 28 -4 24 -10z m-5 -40 c0 -5 -12
-10 -27 -9 l-28 1 25 8 c14 4 26 8 28 9 1 1 2 -3 2 -9z m0 -50 c0 -5 -13 -10
-30 -10 -16 0 -30 5 -30 10 0 6 14 10 30 10 17 0 30 -4 30 -10z m202 -17 c10
-9 18 -26 18 -39 0 -13 8 -29 18 -36 33 -25 56 -88 32 -88 -5 0 -14 8 -19 18
-6 10 -26 30 -45 43 -33 22 -36 28 -36 72 0 51 4 55 32 30z m-191 -24 c15 -7
18 -16 13 -32 -7 -25 -44 -68 -53 -63 -3 2 -30 0 -58 -3 l-53 -7 0 33 c0 23 6
36 18 40 9 4 23 15 30 25 15 20 71 24 103 7z m354 -38 c-16 -14 -55 -23 -55
-13 0 12 17 20 45 21 11 1 15 -3 10 -8z m14 -55 c16 -20 19 -68 4 -73 -13 -5
-53 52 -53 75 0 16 35 15 49 -2z"/>
<path d="M1354 2068 c-48 -50 -74 -87 -74 -105 0 -11 51 -43 101 -65 12 -4 33
14 79 68 53 63 60 77 49 90 -15 18 -82 54 -102 54 -7 0 -31 -19 -53 -42z m101
9 c22 -12 41 -29 42 -37 1 -8 -21 -41 -50 -74 l-53 -58 -52 26 -52 26 15 30
c17 34 88 110 101 110 5 0 27 -11 49 -23z"/>
<path d="M1362 2028 c-36 -45 -38 -71 -7 -76 14 -2 33 12 59 44 37 44 38 48
21 60 -28 21 -37 17 -73 -28z m64 17 c10 -25 -14 -47 -38 -34 -19 10 -19 11
-2 30 21 23 33 24 40 4z m-36 -55 c0 -4 -7 -13 -15 -20 -22 -18 -44 2 -26 24
12 14 41 12 41 -4z"/>
<path d="M1510 1940 c-45 -45 -11 -120 53 -120 20 0 41 8 50 18 23 25 22 85
-1 105 -25 23 -78 21 -102 -3z m88 -6 c42 -29 18 -104 -33 -104 -24 0 -35 10
-52 51 -23 54 34 89 85 53z"/>
<path d="M1540 1920 c-11 -11 -20 -24 -20 -29 0 -16 30 -41 49 -41 40 0 57 61
22 80 -26 13 -28 13 -51 -10z m55 -30 c0 -18 -6 -26 -23 -28 -24 -4 -38 18
-28 44 3 9 15 14 28 12 17 -2 23 -10 23 -28z"/>
<path d="M1550 1896 c0 -8 4 -17 8 -20 13 -8 35 11 28 23 -10 16 -36 14 -36
-3z"/>
<path d="M1870 1735 c0 -8 5 -15 10 -15 6 0 10 7 10 15 0 8 -4 15 -10 15 -5 0
-10 -7 -10 -15z"/>
<path d="M605 1594 c-9 -15 -12 -23 -6 -20 11 7 35 46 28 46 -3 0 -12 -12 -22
-26z"/>
<path d="M353 860 c0 -25 2 -35 4 -22 2 12 2 32 0 45 -2 12 -4 2 -4 -23z"/>
<path d="M362 780 c0 -19 2 -27 5 -17 2 9 2 25 0 35 -3 9 -5 1 -5 -18z"/>
<path d="M372 720 c0 -14 2 -19 5 -12 2 6 2 18 0 25 -3 6 -5 1 -5 -13z"/>
<path d="M524 1252 c3 -5 0 -13 -6 -15 -9 -4 -10 -6 -1 -6 17 -1 25 16 12 25
-7 4 -9 3 -5 -4z"/>
<path d="M540 1143 c0 -9 59 -60 90 -78 18 -10 19 -11 -42 45 -27 23 -48 38
-48 33z"/>
<path d="M758 1133 c7 -3 16 -2 19 1 4 3 -2 6 -13 5 -11 0 -14 -3 -6 -6z"/>
<path d="M712 1080 c0 -14 2 -19 5 -12 2 6 2 18 0 25 -3 6 -5 1 -5 -13z"/>
<path d="M731 1084 c-1 -24 13 -38 47 -47 24 -6 42 16 42 50 -1 13 -5 11 -16
-10 -19 -35 -55 -34 -65 3 -6 22 -7 22 -8 4z"/>
<path d="M650 1055 c0 -2 27 -18 60 -35 34 -17 91 -49 128 -72 36 -22 61 -34
54 -26 -6 8 -8 19 -4 23 4 5 2 5 -5 1 -6 -3 -35 8 -64 24 -70 42 -169 91 -169
85z"/>
<path d="M758 1023 c7 -3 16 -2 19 1 4 3 -2 6 -13 5 -11 0 -14 -3 -6 -6z"/>
<path d="M723 683 c9 -2 25 -2 35 0 9 3 1 5 -18 5 -19 0 -27 -2 -17 -5z"/>
<path d="M818 673 c6 -2 18 -2 25 0 6 3 1 5 -13 5 -14 0 -19 -2 -12 -5z"/>
<path d="M868 663 c7 -3 16 -2 19 1 4 3 -2 6 -13 5 -11 0 -14 -3 -6 -6z"/>
<path d="M783 643 c9 -2 23 -2 30 0 6 3 -1 5 -18 5 -16 0 -22 -2 -12 -5z"/>
<path d="M593 633 c9 -2 23 -2 30 0 6 3 -1 5 -18 5 -16 0 -22 -2 -12 -5z"/>
<path d="M678 633 c12 -2 30 -2 40 0 9 3 -1 5 -23 4 -22 0 -30 -2 -17 -4z"/>
<path d="M838 633 c7 -3 16 -2 19 1 4 3 -2 6 -13 5 -11 0 -14 -3 -6 -6z"/>
<path d="M780 617 c25 -8 55 -19 67 -25 12 -7 25 -12 30 -12 20 2 -67 39 -102
44 l-40 6 45 -13z"/>
<path d="M670 871 c-13 -25 -4 -48 21 -56 38 -12 65 35 37 63 -18 18 -46 14
-58 -7z m17 -33 c-3 -7 -5 -2 -5 12 0 14 2 19 5 13 2 -7 2 -19 0 -25z m38 2
c-5 -8 -11 -8 -17 -2 -6 6 -7 16 -3 22 5 8 11 8 17 2 6 -6 7 -16 3 -22z"/>
<path d="M1472 350 c0 -14 2 -19 5 -12 2 6 2 18 0 25 -3 6 -5 1 -5 -13z"/>
<path d="M1481 304 c0 -11 3 -14 6 -6 3 7 2 16 -1 19 -3 4 -6 -2 -5 -13z"/>
<path d="M867 2201 c-9 -16 -17 -33 -17 -38 0 -4 9 7 21 26 11 18 18 35 17 37
-2 2 -12 -10 -21 -25z"/>
<path d="M1850 2221 c0 -10 84 -126 98 -135 20 -12 82 85 82 129 0 21 -108 22
-116 0 -4 -8 -10 -15 -15 -15 -5 0 -9 7 -9 15 0 8 -9 15 -20 15 -11 0 -20 -4
-20 -9z"/>
<path d="M2377 2155 c-3 -44 -9 -96 -12 -115 -4 -29 -2 -27 9 10 l13 45 5 -40
c3 -22 5 1 6 50 1 121 -13 154 -21 50z"/>
<path d="M2771 2153 c206 -216 296 -438 330 -808 24 -272 -15 -431 -119 -485
-41 -21 -38 0 5 36 42 35 84 119 82 167 0 12 -7 -3 -15 -33 -14 -53 -57 -119
-82 -128 -24 -8 -12 48 18 81 32 37 69 110 71 142 1 14 4 10 9 -10 5 -19 8 7
8 75 l-1 105 -8 -71 c-10 -85 -41 -173 -76 -214 -32 -38 -48 -39 -28 0 21 41
19 43 -14 9 -44 -44 -59 -35 -18 11 20 21 45 56 56 78 23 44 51 149 50 183 0
13 -7 -4 -14 -38 -23 -107 -94 -233 -131 -233 -14 0 -15 33 -1 46 14 14 7 26
-8 14 -31 -26 -35 10 -11 93 10 32 15 70 12 84 -4 14 -3 22 2 19 12 -7 22 80
20 169 -1 39 -3 54 -5 35 -10 -100 -26 -180 -50 -252 -22 -68 -31 -82 -56 -93
-31 -13 -77 -9 -77 7 0 5 -4 7 -9 4 -5 -3 -32 0 -60 7 -45 10 -51 15 -46 32
27 93 43 171 47 230 3 39 3 59 1 45 -24 -142 -85 -274 -125 -268 -12 2 -23 -3
-26 -10 -3 -10 4 -13 24 -10 23 2 36 15 61 58 37 61 42 54 14 -20 -14 -37 -16
-52 -8 -55 7 -2 32 -10 57 -16 53 -15 51 -14 70 -21 74 -29 97 -15 136 79 13
32 24 51 24 42 0 -30 -30 -116 -50 -142 -25 -32 -25 -34 4 -41 39 -10 26 -58
-47 -172 -24 -38 -50 -86 -57 -107 -24 -75 7 -158 95 -256 37 -40 37 -41 20
-67 -9 -14 -37 -40 -62 -57 l-45 -32 5 -55 c2 -30 2 -61 0 -68 -9 -25 -59 -41
-114 -37 -38 3 -44 2 -19 -3 25 -5 37 -14 44 -33 13 -37 3 -55 -42 -78 -27
-14 -43 -31 -51 -52 -15 -45 -5 -49 13 -5 10 24 27 41 53 53 34 16 38 23 41
58 3 36 8 42 45 60 l42 20 0 67 c0 61 3 69 25 85 43 29 90 80 90 97 0 9 -20
38 -44 64 -117 125 -118 197 -3 382 22 36 41 66 41 67 1 1 13 -1 28 -4 15 -3
25 -9 22 -14 -3 -5 4 -9 15 -9 12 0 19 -5 16 -12 -8 -24 -25 -245 -40 -528
-16 -311 -17 -335 -11 -329 3 2 12 135 20 295 9 160 20 324 26 365 5 41 10 77
10 80 0 4 11 10 24 13 130 33 176 280 121 651 -39 263 -127 455 -293 642 -31
35 -68 71 -82 80 -14 9 9 -20 51 -64z"/>
<path d="M1203 2185 c0 -8 6 -15 13 -15 7 0 17 -7 22 -16 8 -14 10 -13 23 2
12 16 12 17 -4 11 -12 -4 -16 -3 -11 4 4 6 0 15 -7 20 -21 13 -36 11 -36 -6z"/>
<path d="M2272 2175 c0 -16 2 -22 5 -12 2 9 2 23 0 30 -3 6 -5 -1 -5 -18z"/>
<path d="M2645 2170 c10 -11 20 -20 23 -20 3 0 -3 9 -13 20 -10 11 -20 20 -23
20 -3 0 3 -9 13 -20z"/>
<path d="M2263 2025 c0 -38 2 -53 4 -32 2 20 2 52 0 70 -2 17 -4 1 -4 -38z"/>
<path d="M1156 2062 c-8 -13 11 -35 23 -28 7 5 8 1 4 -10 -4 -12 -2 -15 8 -12
24 8 21 34 -5 46 -14 6 -27 8 -30 4z"/>
<path d="M2313 1980 c0 -30 2 -43 4 -27 2 15 2 39 0 55 -2 15 -4 2 -4 -28z"/>
<path d="M2346 1954 c-4 -20 -5 -38 -3 -40 3 -3 8 11 11 32 4 20 5 38 3 40 -3
3 -8 -11 -11 -32z"/>
<path d="M2303 1885 c0 -22 2 -30 4 -17 2 12 2 30 0 40 -3 9 -5 -1 -4 -23z"/>
<path d="M2383 1875 c0 -27 2 -38 4 -22 2 15 2 37 0 50 -2 12 -4 0 -4 -28z"/>
<path d="M635 1880 c-10 -11 -16 -23 -12 -26 9 -9 47 16 47 31 0 21 -14 19
-35 -5z"/>
<path d="M938 1893 c12 -2 32 -2 45 0 12 2 2 4 -23 4 -25 0 -35 -2 -22 -4z"/>
<path d="M2331 1884 c0 -11 3 -14 6 -6 3 7 2 16 -1 19 -3 4 -6 -2 -5 -13z"/>
<path d="M1020 1886 c0 -2 7 -7 16 -10 8 -3 12 -2 9 4 -6 10 -25 14 -25 6z"/>
<path d="M2263 1820 c0 -36 2 -50 4 -32 2 17 2 47 0 65 -2 17 -4 3 -4 -33z"/>
<path d="M2444 1770 c0 -63 1 -89 3 -57 2 31 2 83 0 115 -2 31 -3 5 -3 -58z"/>
<path d="M2321 1844 c0 -11 3 -14 6 -6 3 7 2 16 -1 19 -3 4 -6 -2 -5 -13z"/>
<path d="M2291 1798 c-1 -20 -5 -40 -11 -43 -12 -7 -12 -447 0 -540 4 -33 8
-48 9 -33 0 15 12 71 26 124 14 53 25 106 24 118 0 11 -8 -13 -17 -54 -10 -41
-21 -75 -27 -75 -14 0 -18 61 -6 96 6 18 6 27 1 24 -19 -12 -11 111 10 160 25
59 25 71 0 25 l-19 -35 -1 49 c0 28 9 83 21 124 11 40 18 76 15 80 -3 3 -6 -3
-7 -14 -1 -15 -3 -13 -9 6 -7 22 -8 21 -9 -12z"/>
<path d="M680 1784 c0 -6 7 -19 16 -30 14 -18 14 -18 3 6 -14 31 -19 36 -19
24z"/>
<path d="M2372 1760 c0 -19 2 -27 5 -17 2 9 2 25 0 35 -3 9 -5 1 -5 -18z"/>
<path d="M1100 1754 c0 -23 -3 -26 -25 -20 -63 15 -78 16 -40 2 61 -24 75 -21
75 14 0 17 -2 30 -5 30 -3 0 -5 -12 -5 -26z"/>
<path d="M953 1753 c9 -2 23 -2 30 0 6 3 -1 5 -18 5 -16 0 -22 -2 -12 -5z"/>
<path d="M1201 1744 c0 -11 3 -14 6 -6 3 7 2 16 -1 19 -3 4 -6 -2 -5 -13z"/>
<path d="M883 1743 c9 -2 23 -2 30 0 6 3 -1 5 -18 5 -16 0 -22 -2 -12 -5z"/>
<path d="M828 1733 c7 -3 16 -2 19 1 4 3 -2 6 -13 5 -11 0 -14 -3 -6 -6z"/>
<path d="M2652 1690 c0 -14 2 -19 5 -12 2 6 2 18 0 25 -3 6 -5 1 -5 -13z"/>
<path d="M3021 1684 c0 -11 3 -14 6 -6 3 7 2 16 -1 19 -3 4 -6 -2 -5 -13z"/>
<path d="M2356 1640 c-4 -28 -15 -79 -26 -112 -11 -34 -17 -64 -15 -66 2 -2 9
14 16 37 6 22 15 38 19 36 7 -4 23 145 16 152 -2 2 -6 -19 -10 -47z"/>
<path d="M2432 1565 c0 -16 2 -22 5 -12 2 9 2 23 0 30 -3 6 -5 -1 -5 -18z"/>
<path d="M2892 1560 c0 -19 2 -27 5 -17 2 9 2 25 0 35 -3 9 -5 1 -5 -18z"/>
<path d="M3051 1564 c0 -11 3 -14 6 -6 3 7 2 16 -1 19 -3 4 -6 -2 -5 -13z"/>
<path d="M2662 1550 c0 -14 2 -19 5 -12 2 6 2 18 0 25 -3 6 -5 1 -5 -13z"/>
<path d="M3062 1510 c0 -14 2 -19 5 -12 2 6 2 18 0 25 -3 6 -5 1 -5 -13z"/>
<path d="M2342 1475 c0 -16 2 -22 5 -12 2 9 2 23 0 30 -3 6 -5 -1 -5 -18z"/>
<path d="M2422 1480 c0 -14 2 -19 5 -12 2 6 2 18 0 25 -3 6 -5 1 -5 -13z"/>
<path d="M1575 1479 c-8 -12 11 -29 33 -29 19 0 10 34 -10 38 -9 2 -19 -2 -23
-9z"/>
<path d="M3072 1425 c0 -16 2 -22 5 -12 2 9 2 23 0 30 -3 6 -5 -1 -5 -18z"/>
<path d="M2411 1414 c0 -11 3 -14 6 -6 3 7 2 16 -1 19 -3 4 -6 -2 -5 -13z"/>
<path d="M2362 1248 c-23 -64 -71 -136 -72 -108 0 13 -1 13 -10 0 -5 -8 -10
-109 -10 -231 l0 -216 58 -7 c31 -4 61 -7 67 -8 13 -1 31 29 22 38 -3 4 -13 1
-22 -6 -12 -10 -15 -10 -15 4 0 10 4 15 8 12 4 -2 14 -1 22 4 20 12 4 28 -70
70 l-61 35 3 125 c3 118 5 127 31 167 33 48 98 72 135 49 7 -4 26 2 45 16 17
13 33 21 34 18 1 -3 5 -2 9 3 19 18 -32 5 -53 -15 -20 -19 -23 -19 -23 -4 0
13 -4 15 -19 6 -14 -7 -20 -7 -23 2 -3 7 -13 5 -31 -7 -15 -10 -30 -15 -33
-13 -2 3 5 29 16 58 11 29 19 57 18 61 -2 5 -13 -19 -26 -53z m-21 -460 c38
-21 47 -40 31 -66 -7 -10 -16 -10 -48 1 -35 12 -39 18 -42 50 -4 44 5 46 59
15z m-1 -83 c19 -7 28 -14 20 -14 -8 0 -28 6 -45 14 -39 17 -21 18 25 0z"/>
<path d="M2422 1240 c-7 -11 -8 -20 -3 -20 9 0 24 30 18 36 -1 2 -8 -6 -15
-16z"/>
<path d="M1455 1152 c-36 -22 -91 -121 -101 -179 -8 -55 20 -118 86 -187 91
-96 177 -122 200 -60 16 42 -7 78 -53 82 -30 3 -38 8 -44 30 -5 22 0 32 34 61
53 48 66 75 58 119 -8 45 -37 101 -63 125 -30 27 -82 31 -117 9z m52 -32 c14
-36 1 -48 -33 -29 -28 15 -31 34 -6 48 25 15 26 14 39 -19z m61 -3 c2 -10 -3
-17 -12 -17 -10 0 -16 9 -16 21 0 24 23 21 28 -4z m-57 -58 c73 -34 94 -63 78
-107 -10 -27 -29 -29 -29 -3 0 30 -36 67 -90 90 -28 12 -50 28 -50 36 0 22 15
19 91 -16z m74 9 c23 -10 35 -28 18 -28 -16 0 -73 25 -73 32 0 12 25 10 55 -4z
m-148 -34 c-3 -3 -12 -4 -19 -1 -8 3 -5 6 6 6 11 1 17 -2 13 -5z m59 -25 c19
-11 34 -23 34 -25 0 -5 -44 17 -70 35 -28 20 3 11 36 -10z m-60 -3 c18 -14 18
-15 -7 -25 -15 -5 -29 -16 -32 -23 -11 -33 37 -100 100 -139 20 -13 30 -25 26
-35 -3 -7 -9 -14 -13 -14 -14 0 -109 79 -126 105 -16 25 -23 113 -10 134 10
15 38 14 62 -3z m75 -39 c26 -20 31 -62 11 -96 -9 -17 -19 -31 -22 -31 -16 0
-91 90 -88 104 4 24 22 21 26 -4 2 -12 18 -30 35 -41 30 -18 33 -18 45 -2 10
15 8 21 -13 41 -36 33 -32 58 6 29z m-39 -21 c7 5 8 2 4 -5 -5 -7 0 -18 10
-26 11 -8 15 -15 10 -15 -16 0 -46 32 -45 49 0 10 2 12 6 3 2 -6 10 -9 15 -6z
m74 -184 c-18 -16 -19 -16 -12 1 3 10 6 24 6 30 0 8 4 7 12 -1 10 -9 8 -16 -6
-30z m67 18 c3 -11 1 -22 -3 -25 -14 -9 -45 9 -46 28 -2 25 42 23 49 -3z m-94
-34 c15 -8 34 -22 42 -32 13 -16 12 -16 -11 -4 -30 16 -75 50 -66 50 4 0 19
-6 35 -14z m71 -11 c7 -9 10 -18 7 -21 -9 -9 -48 16 -42 27 9 13 21 11 35 -6z"/>
<path d="M121 1094 c0 -11 3 -14 6 -6 3 7 2 16 -1 19 -3 4 -6 -2 -5 -13z"/>
<path d="M183 1070 c0 -25 2 -35 4 -22 2 12 2 32 0 45 -2 12 -4 2 -4 -23z"/>
<path d="M2667 1063 c76 -75 113 -98 113 -69 0 18 -60 66 -118 95 l-44 22 49
-48z"/>
<path d="M131 1054 c0 -11 3 -14 6 -6 3 7 2 16 -1 19 -3 4 -6 -2 -5 -13z"/>
<path d="M32 1040 c0 -14 2 -19 5 -12 2 6 2 18 0 25 -3 6 -5 1 -5 -13z"/>
<path d="M103 995 c0 -22 2 -30 4 -17 2 12 2 30 0 40 -3 9 -5 -1 -4 -23z"/>
<path d="M141 1014 c0 -11 3 -14 6 -6 3 7 2 16 -1 19 -3 4 -6 -2 -5 -13z"/>
<path d="M2479 1002 c-21 -53 -21 -96 0 -153 12 -30 27 -63 34 -72 11 -15 14
-14 30 16 l17 32 -20 -24 -20 -23 -20 43 c-19 42 -27 138 -14 152 4 3 20 -1
36 -9 28 -15 30 -18 24 -62 -3 -26 -3 -40 0 -32 22 60 49 76 39 22 -4 -21 -4
-23 3 -7 6 14 21 22 50 25 l41 5 -39 33 c-22 18 -65 44 -95 58 l-56 24 -10
-28z"/>
<path d="M2570 1026 c0 -2 7 -7 16 -10 8 -3 12 -2 9 4 -6 10 -25 14 -25 6z"/>
<path d="M192 960 c0 -14 2 -19 5 -12 2 6 2 18 0 25 -3 6 -5 1 -5 -13z"/>
<path d="M160 955 c0 -5 5 -17 10 -25 5 -8 10 -10 10 -5 0 6 -5 17 -10 25 -5
8 -10 11 -10 5z"/>
<path d="M1714 805 c0 -77 2 -107 3 -67 2 40 2 103 0 140 -2 37 -3 4 -3 -73z"/>
<path d="M2184 785 c0 -88 2 -123 3 -77 2 46 2 118 0 160 -1 42 -3 5 -3 -83z"/>
<path d="M112 910 c0 -14 2 -19 5 -12 2 6 2 18 0 25 -3 6 -5 1 -5 -13z"/>
<path d="M1577 674 c-4 -4 -7 -14 -6 -23 0 -12 3 -11 9 4 7 17 9 17 9 3 1 -10
5 -18 10 -18 5 0 12 8 14 18 4 13 5 12 6 -5 0 -12 -6 -24 -14 -26 -11 -4 -10
-4 2 -3 27 2 24 50 -2 54 -12 2 -24 0 -28 -4z"/>
<path d="M1910 667 c0 -10 11 -29 25 -42 23 -24 29 -25 132 -23 l108 2 -95 3
c-126 4 -139 8 -155 46 -9 19 -14 25 -15 14z"/>
<path d="M2262 443 c0 -38 3 -53 5 -35 4 31 6 33 41 30 27 -2 37 1 37 12 0 14
-59 60 -76 60 -5 0 -8 -30 -7 -67z"/>
<path d="M2194 355 c0 -49 1 -71 3 -48 2 23 2 64 0 90 -2 26 -3 8 -3 -42z"/>
<path d="M1794 296 c-3 -8 -4 -27 -2 -43 l3 -28 90 0 90 0 0 40 0 40 -88 3
c-69 2 -88 0 -93 -12z m119 -13 c-13 -2 -35 -2 -50 0 -16 2 -5 4 22 4 28 0 40
-2 28 -4z m48 -12 c7 10 9 7 7 -11 -3 -24 -5 -25 -83 -25 -72 0 -80 2 -83 20
-3 16 -1 18 9 8 8 -8 37 -12 74 -11 l60 1 -60 7 -60 7 58 1 c37 1 57 6 58 15
1 6 4 3 6 -7 4 -15 7 -16 14 -5z"/>
<path d="M2204 130 c0 -74 1 -105 3 -67 2 37 2 97 0 135 -2 37 -3 6 -3 -68z"/>
<path d="M2274 115 c0 -66 1 -92 3 -57 2 34 2 88 0 120 -2 31 -3 3 -3 -63z"/>
<path d="M1324 135 c-7 -51 1 -111 17 -121 8 -4 8 1 3 17 -5 13 -8 52 -8 87 1
34 0 62 -2 62 -1 0 -6 -20 -10 -45z"/>
<path d="M1109 62 c-11 -39 -15 -41 -63 -50 l-51 -10 61 -1 62 -1 4 47 c6 61
2 65 -13 15z"/>
<path d="M1903 65 c0 -22 2 -30 4 -17 2 12 2 30 0 40 -3 9 -5 -1 -4 -23z"/>
<path d="M2881 65 c-1 -11 -4 -31 -7 -45 -5 -22 -4 -23 6 -7 6 10 9 30 7 45
-3 18 -5 20 -6 7z"/>
<path d="M1024 59 c-9 -15 11 -32 32 -26 16 4 15 5 -3 6 -13 0 -23 5 -23 10 0
5 11 8 25 6 14 -1 25 2 25 6 0 13 -48 11 -56 -2z"/>
</g>
</svg>
